<svg width="42" height="43" viewBox="0 0 42 43" fill="none" xmlns="http://www.w3.org/2000/svg">
<mask id="mask0" mask-type="alpha" maskUnits="userSpaceOnUse" x="0" y="0" width="42" height="43">
<path d="M42 21.0017C42.0005 23.7596 41.4576 26.4905 40.4026 29.0385C39.3475 31.5865 37.8009 33.9018 35.851 35.852C33.9011 37.8022 31.5861 39.3493 29.0382 40.4047C26.4904 41.4602 23.7596 42.0035 21.0017 42.0035C15.4317 42.0035 10.0898 39.7908 6.15126 35.8522C2.21267 31.9136 0 26.5717 0 21.0017C0 15.4317 2.21267 10.0898 6.15126 6.15126C10.0898 2.21267 15.4317 0 21.0017 0C23.7596 -3.78225e-08 26.4904 0.54325 29.0382 1.59873C31.5861 2.65421 33.9011 4.20124 35.851 6.15147C37.8009 8.10171 39.3475 10.4169 40.4026 12.965C41.4576 15.513 42.0005 18.2439 42 21.0017Z" fill="white"/>
</mask>
<g mask="url(#mask0)">
<path d="M40.8464 45.1751H2.15033C2.22075 44.4901 2.56965 42.1086 4.31096 39.0645C6.37876 35.4443 15.5974 35.9596 15.9079 35.4443C16.0424 35.2202 16.1192 34.3079 16.164 33.3508C16.2184 32.1089 16.2184 30.7901 16.2184 30.7901L21.5 32.3458L26.7815 30.7901C26.7815 30.7901 26.7815 32.0993 26.8327 33.3508C26.8807 34.3111 26.9544 35.2362 27.092 35.4635C27.4121 35.9788 36.618 35.4635 38.689 39.0837C40.4271 42.1086 40.7792 44.4901 40.8464 45.1751Z" fill="#CD8B6D"/>
<path d="M40.8464 45.1751H2.15033C2.22075 44.4901 2.56965 42.1086 4.31096 39.0645C6.05227 36.0204 12.9215 35.8956 15.1941 35.6267C15.6071 35.5755 15.8663 35.5243 15.9143 35.4443C15.9143 35.4443 21.4039 42.5888 27.0984 35.4443C27.1496 35.5339 27.4761 35.5915 27.9883 35.6491C30.4082 35.9052 36.9861 36.0781 38.6954 39.0645C40.4271 42.1086 40.7792 44.4901 40.8464 45.1751Z" fill="#006986"/>
<path d="M27.982 35.6491C23.5007 41.8814 18.1551 38.466 15.1782 35.6267C15.5911 35.5755 15.8504 35.5243 15.8984 35.4443C15.8984 35.4443 21.388 42.5888 27.0825 35.4443C27.1433 35.5339 27.4698 35.5915 27.982 35.6491Z" fill="#6EBCCE"/>
<path d="M12.4604 20.0029C12.4604 20.0029 10.0117 15.8673 9.0002 19.4108C7.98871 22.9542 10.4342 24.6443 12.0379 24.3082C13.6416 23.9721 12.4604 20.0029 12.4604 20.0029Z" fill="#CD8B6D"/>
<path d="M12.1757 20.6784C12.1757 20.6784 10.4889 18.06 9.89668 19.1163C9.53626 19.8631 9.39106 20.6955 9.47736 21.5202C9.47736 21.5202 9.81345 20.0446 10.9114 20.88C10.9114 20.88 9.85506 23.2423 12.0093 22.5669C11.9965 22.5765 12.8832 21.8595 12.1757 20.6784Z" fill="#B66C50"/>
<path d="M30.037 20.0029C30.037 20.0029 32.4857 15.8673 33.4972 19.4108C34.5087 22.9542 32.0632 24.6443 30.4595 24.3082C28.8558 23.9721 30.037 20.0029 30.037 20.0029Z" fill="#CD8B6D"/>
<path d="M30.072 20.9536C30.072 20.9536 31.7589 18.3353 32.3511 19.3916C32.7117 20.1384 32.8579 20.9705 32.7736 21.7955C32.7736 21.7955 32.4343 20.3199 31.3364 21.1553C31.3364 21.1553 32.3927 23.5176 30.2385 22.8422C30.2385 22.8518 29.355 22.1348 30.072 20.9536Z" fill="#B66C50"/>
<path d="M30.1009 26.7537C29.9152 29.7946 26.4486 32.0449 24.1824 33.05C22.884 33.6554 21.4268 33.8325 20.0212 33.5557C11.4555 31.0366 11.6987 25.2333 12.0828 23.604C12.467 21.9747 11.942 18.8026 12.9471 15.0383C13.0765 14.5512 13.2692 14.0831 13.5201 13.6459C15.0533 10.9699 18.3215 10.1089 18.3215 10.1089C23.9839 6.45021 27.9467 10.0449 29.2526 12.9897C29.3394 13.182 29.4164 13.3786 29.4831 13.5787C30.4722 16.61 30.2929 23.3415 30.1009 26.7537Z" fill="#E8B299"/>
<path d="M12.2844 11.21C12.1788 11.5301 11.8363 17.8231 12.1628 20.6784L15.1813 12.7625L12.2844 11.21Z" fill="#92561A"/>
<path d="M28.6443 11.831C28.6443 11.831 25.485 13.1113 20.085 14.3085C19.5345 14.4301 18.9647 14.5518 18.3661 14.6702C17.5531 14.8324 16.6995 14.9903 15.8054 15.1439C12.2555 15.7425 10.639 14.7022 9.93164 13.3642C9.87498 13.2602 9.8237 13.1534 9.778 13.0441C9.11541 11.4437 9.59234 9.56471 9.59234 9.56471C9.778 9.95843 10.1877 9.99684 10.7767 9.78878C10.8857 9.75091 10.9926 9.7071 11.0968 9.65754C13.219 8.72287 17.1466 5.45152 21.1829 4.07832C21.6843 3.9019 22.2137 3.81838 22.745 3.83185C22.9966 3.84075 23.2466 3.87615 23.4908 3.93747C24.2844 4.15399 25.0032 4.58477 25.5682 5.18263C25.6546 5.27226 25.7411 5.36189 25.8243 5.45471C26.3373 6.04824 26.7749 6.70301 27.1271 7.40408C27.2295 7.59934 27.3255 7.79781 27.4183 7.99306C27.991 9.21406 28.4031 10.5041 28.6443 11.831Z" fill="#A16929"/>
<path d="M25.8308 5.4419C25.053 6.32216 24.2624 7.18641 23.3981 8.00265C21.007 10.2753 18.2382 12.2471 15.0117 13.1241C13.4112 13.5531 11.5418 13.8219 9.93178 13.3642C9.87511 13.2602 9.82384 13.1534 9.77814 13.0441C9.91578 13.0857 10.0534 13.1177 10.2039 13.1497C13.0847 13.7387 16.2856 12.692 18.7664 11.2292C21.3672 9.6235 23.6706 7.57998 25.5747 5.18903C25.6612 5.25945 25.7476 5.34908 25.8308 5.4419Z" fill="#C98643"/>
<path d="M23.4975 3.92467C22.0379 6.32857 20.1205 8.44759 17.8991 9.82079C16.0937 10.9347 14.0579 11.3508 12.0253 10.669C11.524 10.5135 11.0861 10.2002 10.777 9.77597C10.886 9.7381 10.9928 9.69429 11.0971 9.64473C11.2862 9.85346 11.516 10.0212 11.7725 10.1377C12.8467 10.6181 14.0495 10.7306 15.1943 10.4578C17.1404 9.98724 18.8337 8.68446 20.1909 7.25684C21.1704 6.21263 22.0294 5.0616 22.7517 3.82544C23.0031 3.83224 23.2531 3.8655 23.4975 3.92467Z" fill="#C98643"/>
<path d="M27.425 7.98024C26.0183 9.62621 24.4506 11.1274 22.7453 12.4615C21.8998 13.1335 21.0113 13.7494 20.0853 14.3053C19.5347 14.4269 18.965 14.5485 18.3664 14.667C20.1355 13.8636 21.7685 12.789 23.2062 11.4821C24.6275 10.2295 25.9412 8.86006 27.1337 7.38806C27.2362 7.58652 27.3322 7.78498 27.425 7.98024Z" fill="#C98643"/>
<path d="M31.1797 14.6542C31.1541 14.8911 31.1284 15.1279 31.0996 15.3584C30.9368 16.6498 30.7071 17.9319 30.4114 19.1995C30.3634 19.414 30.3186 19.5868 30.2898 19.7117C30.2546 19.8589 30.2322 19.9389 30.2322 19.9389L30.1714 19.5356C30.1714 19.5164 30.1714 19.5004 30.1714 19.4812C30.0401 18.4729 29.5312 17.1701 28.9102 15.8449C27.7939 13.5883 26.5277 11.4089 25.1203 9.32143C24.6882 7.72097 25.8341 7.00715 26.7656 6.68706C26.922 6.63279 27.0812 6.58684 27.2425 6.54942C27.4374 6.50155 27.6352 6.46626 27.8347 6.44379C28.0017 6.44549 28.1684 6.45726 28.334 6.479C28.51 6.50625 28.6835 6.548 28.8526 6.60383C31.3173 7.43288 31.5126 11.2932 31.1797 14.6542Z" fill="#92561A"/>
<path d="M30.4209 19.2059C30.3729 19.4204 30.3281 19.5932 30.2993 19.7181C30.2577 19.6412 30.2129 19.5676 30.1745 19.4908C29.6 18.4416 29.1909 17.3101 28.9613 16.1362L28.9133 15.8545C28.3883 12.628 28.3916 9.35023 26.7687 6.69666C26.9251 6.64238 27.0843 6.59644 27.2456 6.55902C27.4208 6.85049 27.579 7.15189 27.7193 7.46169C28.2988 8.90734 28.6695 10.4281 28.8205 11.9782C29.0797 14.1324 29.1086 16.4147 30.008 18.4249C30.1329 18.6842 30.2641 18.9466 30.4209 19.2059Z" fill="#B56E2D"/>
<path d="M31.1797 14.6542C31.1541 14.8911 31.1285 15.128 31.0997 15.3584C29.6849 13.1178 28.9487 9.20304 28.3277 6.48865C28.5037 6.51589 28.6771 6.55764 28.8462 6.61348C29.2752 8.21395 29.4864 9.93286 29.9506 11.4437C30.2377 12.5569 30.65 13.6339 31.1797 14.6542Z" fill="#B56E2D"/>
<path d="M15.86 17.0997C14.8997 17.6887 14.3267 19.1323 14.8997 20.0638C14.9253 20.1118 15.0245 20.0926 15.0181 20.0382C14.9727 19.6072 15.0251 19.1716 15.1714 18.7637C15.3177 18.3558 15.5542 17.9862 15.8632 17.6823C16.2759 17.3061 16.8123 17.0942 17.3708 17.0869C18.011 17.0453 18.2927 17.6183 18.7952 17.8135C18.8977 17.8552 19.0289 17.7879 18.9937 17.6823C18.5968 16.4852 16.8427 16.5044 15.86 17.0997Z" fill="#390A0A"/>
<path d="M19.2497 19.7885C19.2497 21.3409 18.2894 22.6021 17.1179 22.6021C15.9463 22.6021 14.9893 21.3409 14.9893 19.7885C14.9893 18.236 15.9495 16.9749 17.1179 16.9749C18.2862 16.9749 19.2497 18.236 19.2497 19.7885Z" fill="white"/>
<path d="M18.7984 19.8718C18.7984 21.0273 18.0718 21.9652 17.1755 21.9652C16.2793 21.9652 15.5527 21.0273 15.5527 19.8718C15.5527 18.7162 16.2793 17.7751 17.1755 17.7751C18.0718 17.7751 18.7984 18.7226 18.7984 19.8718Z" fill="#3D79CA"/>
<path d="M18.539 19.9038C18.539 20.864 17.9437 21.6707 17.2106 21.6707C16.4776 21.6707 15.8823 20.88 15.8823 19.9038C15.8823 18.9275 16.4776 18.1368 17.2106 18.1368C17.9437 18.1368 18.539 18.9307 18.539 19.9038Z" fill="#390A0A"/>
<path d="M18.7983 18.3833C18.7983 18.5753 18.4206 18.729 17.9564 18.729C17.4923 18.729 17.1178 18.5753 17.1178 18.3833C17.1178 18.1912 17.4955 18.0344 17.9564 18.0344C18.4174 18.0344 18.7983 18.188 18.7983 18.3833Z" fill="white"/>
<path d="M26.6792 17.0997C27.6394 17.6887 28.2124 19.1323 27.6394 20.0638C27.6138 20.1118 27.5146 20.0926 27.521 20.0382C27.5664 19.6072 27.514 19.1716 27.3677 18.7637C27.2214 18.3558 26.9849 17.9862 26.676 17.6823C26.2643 17.3063 25.729 17.0944 25.1715 17.0869C24.5313 17.0453 24.2465 17.6183 23.7439 17.8135C23.6415 17.8552 23.5102 17.7879 23.5455 17.6823C23.9424 16.4852 25.6965 16.5044 26.6792 17.0997Z" fill="#390A0A"/>
<path d="M27.3961 19.7885C27.3961 21.3409 26.4358 22.6021 25.2675 22.6021C24.0991 22.6021 23.1389 21.3409 23.1389 19.7885C23.1389 18.236 24.0991 16.9749 25.2675 16.9749C26.4358 16.9749 27.3961 18.236 27.3961 19.7885Z" fill="white"/>
<path d="M26.9447 19.8718C26.9447 21.0273 26.2181 21.9652 25.3218 21.9652C24.4255 21.9652 23.6989 21.0369 23.6989 19.8718C23.6989 18.7066 24.4255 17.7751 25.3186 17.7751C26.2116 17.7751 26.9447 18.7226 26.9447 19.8718Z" fill="#3D79CA"/>
<path d="M26.6887 19.9038C26.6887 20.864 26.0933 21.6707 25.3571 21.6707C24.6208 21.6707 24.0287 20.88 24.0287 19.9038C24.0287 18.9275 24.624 18.1368 25.3571 18.1368C26.0901 18.1368 26.6887 18.9307 26.6887 19.9038Z" fill="#390A0A"/>
<path d="M26.9449 18.3833C26.9449 18.5753 26.5704 18.729 26.1062 18.729C25.6421 18.729 25.2676 18.5753 25.2676 18.3833C25.2676 18.1912 25.6421 18.0344 26.1062 18.0344C26.5704 18.0344 26.9449 18.188 26.9449 18.3833Z" fill="white"/>
<path d="M21.2086 18.4313C21.2086 18.4313 20.5684 17.7911 20.4531 20.0702C20.3379 22.3492 20.4531 24.7307 20.4531 24.7307C20.4531 24.7307 18.9423 23.8473 19.4449 25.1084C19.7169 25.787 20.3571 26.1359 21.0453 26.3152C21.2953 26.3874 21.5608 26.3867 21.8103 26.3129C22.0599 26.2392 22.2831 26.0956 22.4537 25.8991C22.633 25.723 23.5676 24.7755 23.2732 24.481C23.1323 24.337 22.3129 24.6763 22.1048 24.7307C22.0984 24.7307 22.3417 17.9287 21.2086 18.4313Z" fill="#CD8B6D"/>
<path d="M24.9793 27.6596C24.9793 27.6596 22.0121 32.7459 17.9149 27.8517C17.9149 27.8517 20.3028 27.045 21.1766 27.762L21.4967 28.1237C21.4967 28.1237 22.4186 26.9874 24.9793 27.6596Z" fill="#B66C50"/>
<path d="M24.9793 27.6596C24.9793 27.6596 22.0121 32.7459 17.9149 27.8517C17.9373 27.8517 21.9416 29.689 24.9793 27.6596Z" fill="#CD8B6D"/>
<path d="M19.9476 15.8194C19.9476 16.6484 18.5072 16.1811 16.7466 16.1811C14.9861 16.1811 13.5457 16.6484 13.5457 15.8194C13.5457 14.9903 14.9829 13.1786 16.7466 13.1786C18.5104 13.1786 19.9476 14.9903 19.9476 15.8194Z" fill="#6D3A12"/>
<path d="M28.6445 15.8194C28.6445 16.6484 27.2073 16.1811 25.4435 16.1811C23.6798 16.1811 22.2426 16.6484 22.2426 15.8194C22.2426 14.9903 23.6798 13.1786 25.4435 13.1786C27.2073 13.1786 28.6445 14.9903 28.6445 15.8194Z" fill="#6D3A12"/>
</g>
</svg>
