<svg width="42" height="43" viewBox="0 0 42 43" fill="none" xmlns="http://www.w3.org/2000/svg">
<mask id="mask0" mask-type="alpha" maskUnits="userSpaceOnUse" x="0" y="0" width="42" height="43">
<path d="M42 21.0017C42.0005 23.7596 41.4576 26.4905 40.4026 29.0385C39.3475 31.5865 37.8009 33.9018 35.851 35.852C33.9011 37.8022 31.5861 39.3493 29.0382 40.4047C26.4904 41.4602 23.7596 42.0035 21.0017 42.0035C15.4317 42.0035 10.0898 39.7908 6.15126 35.8522C2.21267 31.9136 0 26.5717 0 21.0017C0 15.4317 2.21267 10.0898 6.15126 6.15126C10.0898 2.21267 15.4317 0 21.0017 0C23.7596 -3.78225e-08 26.4904 0.54325 29.0382 1.59873C31.5861 2.65421 33.9011 4.20124 35.851 6.15147C37.8009 8.10171 39.3475 10.4169 40.4026 12.965C41.4576 15.513 42.0005 18.2439 42 21.0017V21.0017Z" fill="white"/>
</mask>
<g mask="url(#mask0)">
<mask id="mask1" mask-type="alpha" maskUnits="userSpaceOnUse" x="1" y="-1" width="44" height="44">
<path d="M44.23 20.6132C44.2305 23.4518 43.6717 26.2627 42.5858 28.8853C41.4998 31.508 39.9079 33.891 37.9009 35.8984C35.8939 37.9057 33.5111 39.498 30.8886 40.5844C28.2661 41.6708 25.4554 42.23 22.6168 42.23C16.8837 42.23 11.3853 39.9525 7.3314 35.8986C3.27747 31.8446 1 26.3463 1 20.6132C1 17.7746 1.55916 14.9638 2.64555 12.3414C3.73194 9.71889 5.32427 7.33611 7.33162 5.3291C9.33897 3.32208 11.722 1.73014 14.3447 0.644183C16.9673 -0.441772 19.7782 -1.00047 22.6168 -1C28.349 -1 33.8463 1.2771 37.8996 5.33036C41.9529 9.38362 44.23 14.881 44.23 20.6132V20.6132Z" fill="white"/>
</mask>
<g mask="url(#mask1)">
<path d="M30.6012 42.1016C30.6012 42.1016 20.8632 43.0062 11.6175 42.0317C11.7099 41.7074 11.8209 41.3888 11.9501 41.0772C11.9667 41.0307 11.9867 40.9808 12.0099 40.9309C12.0931 40.7247 12.1995 40.4919 12.3193 40.2425C12.3891 40.0928 12.4722 39.9398 12.5587 39.7802L12.6352 39.6338C12.6618 39.5873 12.6851 39.5474 12.715 39.5008C12.7311 39.4633 12.7512 39.4276 12.7749 39.3944C12.8547 39.2514 12.9478 39.1084 13.0409 38.962C13.2072 38.6993 13.3935 38.4366 13.5997 38.1705C13.6762 38.0707 13.756 37.9743 13.8358 37.8745C13.9156 37.7747 13.9688 37.7149 14.0387 37.6384C14.1584 37.4987 14.2881 37.359 14.4245 37.2226C14.6177 37.0241 14.8209 36.8354 15.0331 36.6572C15.1229 36.5841 15.2127 36.5076 15.3091 36.4344L15.4488 36.328C15.502 36.2848 15.5586 36.2449 15.6151 36.2049L15.9677 35.9555C16.587 35.5617 17.2588 35.2572 17.9631 35.0509C18.3983 34.9241 18.8433 34.834 19.2935 34.7815C19.6489 34.7397 20.0065 34.7186 20.3644 34.7183L21.545 34.7881C21.8747 34.7331 22.2085 34.7064 22.5428 34.7083C23.2518 34.704 23.9581 34.798 24.6414 34.9877C25.5799 35.249 26.4541 35.702 27.2089 36.318C27.3352 36.4211 27.4616 36.5275 27.5847 36.6506C27.6445 36.7038 27.7077 36.7637 27.7643 36.8235L27.8108 36.8668L27.9272 36.9865L28.1301 37.2127C28.2332 37.3324 28.3363 37.4588 28.4361 37.5885C28.5359 37.7182 28.609 37.818 28.6955 37.941C28.782 38.0641 28.8152 38.114 28.8718 38.2038C28.9283 38.2936 28.9616 38.3434 29.0048 38.4199C29.1157 38.5995 29.2265 38.7891 29.3374 38.9886C29.4305 39.1716 29.5236 39.3611 29.6101 39.5607C29.64 39.6205 29.6633 39.6771 29.6899 39.7369L29.7731 39.9631L29.9294 40.3688L30.0824 40.7679L30.1555 40.9608L30.2719 41.2668L30.6012 42.1016Z" fill="#AB0048"/>
<path d="M22.985 36.3147C21.6547 37.4289 18.8577 36.3147 18.8577 36.3147C19.0843 35.8338 19.2314 35.3194 19.2934 34.7915C19.3033 34.7432 19.31 34.6943 19.3134 34.6452C19.3647 34.2293 19.3847 33.8102 19.3732 33.3913C19.3732 33.1353 19.3732 32.8825 19.3333 32.643C19.2719 31.8867 19.1473 31.1369 18.9608 30.4014L22.5327 30.2917C22.3223 31.0521 22.2391 31.8421 22.2866 32.6297C22.2866 32.9922 22.3365 33.3514 22.3798 33.6907C22.423 34.0299 22.4695 34.2893 22.5261 34.562L22.556 34.705C22.6651 35.2501 22.8084 35.7877 22.985 36.3147V36.3147Z" fill="#CD8B6D"/>
<path d="M28.4495 37.5885C27.9806 37.7514 27.4052 37.951 26.7866 38.1472C26.3609 38.2902 25.9186 38.4332 25.4995 38.5629C24.7912 38.8065 24.0636 38.99 23.3245 39.1117C23.1416 39.1117 22.2702 39.1616 21.4288 39.2015L20.5508 39.2347L19.6528 39.2747C18.5897 39.25 17.529 39.1611 16.4767 39.0086C16.4035 39.0086 16.327 38.9886 16.2571 38.9753C15.3307 38.8616 14.4307 38.5893 13.5965 38.1705C13.673 38.0707 13.7528 37.9743 13.8326 37.8745C13.9125 37.7747 13.9657 37.7149 14.0355 37.6384C14.1552 37.4987 14.2849 37.359 14.4213 37.2226C14.6146 37.0241 14.8177 36.8354 15.0299 36.6572C15.1197 36.5841 15.2095 36.5076 15.306 36.4344L15.4456 36.328C15.4989 36.2848 15.5554 36.2449 15.6119 36.2049L15.9678 35.9555C16.5871 35.5617 17.2589 35.2572 17.9633 35.0509C18.3984 34.9241 18.8434 34.834 19.2936 34.7815C19.649 34.7397 20.0066 34.7186 20.3645 34.7183L21.5452 34.7881C21.8749 34.7331 22.2087 34.7064 22.5429 34.7083C23.252 34.704 23.9582 34.798 24.6415 34.9877C25.5801 35.249 26.4543 35.702 27.209 36.318C27.3354 36.4211 27.4618 36.5275 27.5848 36.6506C27.6447 36.7038 27.7079 36.7637 27.7644 36.8235L27.811 36.8668L27.9274 36.9865L28.1303 37.2127C28.2467 37.3324 28.3498 37.4588 28.4495 37.5885Z" fill="#CD8B6D"/>
<path d="M20.5638 39.2348L19.6659 39.2747C18.6028 39.25 17.5421 39.1612 16.4897 39.0086C16.4165 39.0086 16.34 38.9887 16.2702 38.9754C16.4352 38.5515 16.7246 38.1874 17.1004 37.931C17.4761 37.6746 17.9206 37.5378 18.3754 37.5386C18.8769 37.5378 19.3643 37.7041 19.7606 38.0113C20.1569 38.3185 20.4396 38.749 20.5638 39.2348V39.2348Z" fill="#E8A287"/>
<path d="M25.5129 38.563C24.8045 38.8065 24.0769 38.9901 23.3378 39.1117C23.1549 39.1117 22.2835 39.1616 21.4421 39.2015C21.5726 38.7239 21.8566 38.3023 22.2502 38.0019C22.6438 37.7014 23.1253 37.5386 23.6205 37.5386C23.9962 37.5385 24.3661 37.632 24.6965 37.8109C25.027 37.9898 25.3076 38.2483 25.5129 38.563V38.563Z" fill="#E8A287"/>
<path d="M29.2708 20.6568C29.4308 20.4454 29.6477 20.284 29.896 20.1912C30.1282 20.0983 30.3687 20.0281 30.6144 19.9817C31.0966 19.8853 31.6853 19.8786 32.0279 20.3143C32.2472 20.6492 32.3629 21.0414 32.3604 21.4417C32.4336 23.0814 31.0534 23.9893 29.6366 24.3784C29.3672 24.4516 28.9016 24.711 28.7021 24.4017C28.3728 23.8396 28.8684 21.2488 29.2708 20.6568Z" fill="#CD8B6D"/>
<path d="M29.2709 21.9006C29.2709 21.9006 31.0103 20.291 31.2431 21.1823C31.369 21.7997 31.3206 22.4399 31.1034 23.0314C31.1034 23.0314 31.1333 21.8807 30.1655 22.2931C30.1655 22.2931 30.4981 24.232 29.0381 23.3307C28.8914 23.1063 28.834 22.8351 28.8771 22.5705C28.9201 22.3059 29.0606 22.067 29.2709 21.9006V21.9006Z" fill="#B66C50"/>
<path d="M12.6584 20.6568C12.4984 20.4454 12.2815 20.2839 12.0331 20.1912C11.7996 20.1015 11.5579 20.0347 11.3114 19.9917C10.8292 19.8952 10.2405 19.8886 9.89798 20.3242C9.67865 20.6592 9.56297 21.0513 9.5654 21.4517C9.49223 23.0913 10.8758 23.9992 12.2892 24.3884C12.5586 24.4615 13.0242 24.7209 13.2238 24.4116C13.5597 23.8396 13.0675 21.2488 12.6584 20.6568Z" fill="#CD8B6D"/>
<path d="M12.6653 21.9006C12.6653 21.9006 10.9292 20.291 10.6931 21.1823C10.5675 21.7999 10.6171 22.4404 10.8361 23.0314C10.8361 23.0314 10.8062 21.8807 11.7706 22.2931C11.7706 22.2931 11.4381 24.232 12.8981 23.3307C13.0455 23.1065 13.1034 22.8352 13.0603 22.5703C13.0172 22.3055 12.8762 22.0665 12.6653 21.9006V21.9006Z" fill="#B66C50"/>
<path d="M29.7666 19.2899C29.7334 19.6225 29.6902 19.9285 29.6502 20.2511C29.3967 22.2983 29.0258 24.3293 28.5394 26.334C27.5816 30.1055 22.9155 31.9612 21.2526 31.8315C12.6853 30.6808 12.2396 24.8008 12.2995 24.1622C12.4026 23.1645 12.2263 22.077 12.1632 21.0759C12.1266 20.5471 12.0501 20.0017 11.9736 19.4562C11.8069 18.5423 11.7755 17.6089 11.8805 16.6858C11.885 16.6421 11.8928 16.5987 11.9038 16.5561C12.0718 15.6298 12.3394 14.7244 12.7019 13.8556C13.7895 11.1949 15.9878 8.24826 19.1274 8.2017C19.8753 8.19574 20.6195 8.30798 21.3324 8.53428C22.3669 8.8616 23.3575 9.31392 24.2824 9.88124C26.2579 11.0785 28.2301 12.4355 29.2179 14.6105C29.9097 16.1437 29.9363 17.6869 29.7666 19.2899Z" fill="#FFC29C"/>
<path d="M33.4719 14.6005C33.4995 15.037 33.4806 15.4752 33.4154 15.9076C33.4068 16.3136 33.2921 16.7103 33.0828 17.0583C32.9143 17.4615 32.6467 17.8155 32.3048 18.0876C31.9629 18.3597 31.5579 18.541 31.1272 18.6148C30.9194 18.7136 30.6822 18.7314 30.462 18.6647C29.6938 18.6314 29.3446 18.2423 29.2747 17.7401C29.0686 17.4771 28.884 17.1979 28.7226 16.9053C28.3901 17.5904 27.7681 18.0295 26.9134 17.6137C26.3214 17.3244 25.7494 16.5362 25.4101 15.7346C25.347 16.7025 24.8348 17.8 24.0798 17.9962C22.8027 18.3288 22.4901 16.483 22.6231 15.5717C22.3271 16.8821 19.9991 19.6491 18.9282 17.6902C18.3528 16.6393 19.2341 15.1526 19.8827 14.3644C19.9392 14.2979 20.0024 14.2181 20.0755 14.1216C20.2439 13.9006 20.4238 13.6886 20.6143 13.4864C20.477 13.4963 20.3392 13.4963 20.2019 13.4864C19.9691 13.4664 19.733 13.4299 19.4935 13.39C18.4193 13.2203 18.5823 13.5795 18.1898 14.5407C17.7974 15.5018 16.8795 16.922 15.6788 16.2402C15.3618 16.0304 15.136 15.7084 15.0469 15.3389C14.8174 16.5262 14.2388 17.7401 13.384 18.362C13.2991 18.427 13.209 18.4848 13.1146 18.535L13.0648 18.6381C12.5027 19.7755 11.2588 20.6336 9.98506 20.1779C8.1858 19.5128 7.72018 16.9752 8.79109 15.5916C8.84851 15.5198 8.90956 15.451 8.97401 15.3854L8.90418 15.3455C7.90644 14.8234 7.85654 13.5895 8.39199 12.5984C8.67136 12.0829 9.61257 10.9654 10.4207 10.9954C10.444 9.50541 11.0859 7.49331 12.6856 8.11856C12.7222 8.06534 12.7488 8.0088 12.7854 7.95559C12.1934 7.06095 12.6823 6.01665 13.5204 5.34484C13.6333 5.2528 13.7522 5.16835 13.8763 5.09207L13.9162 5.06879C15.3562 4.19743 16.9094 4.12426 18.1266 4.6963C18.4156 4.18822 18.8095 3.7475 19.282 3.40344C19.7545 3.05937 20.2948 2.81985 20.8671 2.70082C22.1209 2.4148 23.2583 2.70082 23.7872 3.99456C23.9254 4.36688 24.0127 4.75621 24.0466 5.15194C24.459 3.95465 25.8824 3.62539 27.1961 4.13757C28.5098 4.64974 29.0319 5.75058 28.9987 7.05762C29.4374 7.13518 29.8636 7.27166 30.2658 7.46337C30.4033 7.52989 30.5396 7.60306 30.6749 7.68288C30.8146 7.76602 30.9542 7.85249 31.0939 7.94894C32.3079 8.78704 33.3389 10.124 33.5417 11.5475C33.6291 12.0602 33.5375 12.5875 33.2823 13.0407C33.259 13.084 33.2357 13.1206 33.2125 13.1571C33.2808 13.3752 33.3353 13.5974 33.3754 13.8223C33.4253 14.0792 33.4576 14.3392 33.4719 14.6005V14.6005Z" fill="#4A1D1D"/>
<path d="M10.8293 15.2491C10.1944 15.5527 9.48577 15.6681 8.78729 15.5817C8.84471 15.5099 8.90578 15.441 8.97023 15.3755L8.90038 15.3356C9.35188 15.4028 9.8132 15.3405 10.2307 15.156C11.0056 14.8566 11.8936 14.381 12.316 13.6261C12.5554 13.207 13.0277 12.0463 12.1896 11.8634C11.8597 11.7828 11.5136 11.7978 11.1919 11.9067C10.8207 12.0037 10.4878 12.2114 10.2374 12.502C9.9911 12.742 9.8339 13.0587 9.79169 13.3999L10.4402 13.8822C10.4599 13.8779 10.4804 13.8806 10.4983 13.8899C10.5162 13.8991 10.5303 13.9143 10.5381 13.9328C10.546 13.9513 10.5472 13.972 10.5415 13.9913C10.5357 14.0106 10.5235 14.0273 10.5067 14.0385C10.2041 14.2646 9.74514 14.3478 9.58882 13.8822C9.32608 13.084 9.7418 12.645 10.3105 12.1195C10.8792 11.594 12.306 11.2481 12.8282 12.043C13.6396 13.3035 11.7972 14.8566 10.8293 15.2491Z" fill="#703838"/>
<path d="M15.7581 10.1307C13.8957 9.39898 13.1972 7.25051 13.5132 5.34483C13.6261 5.25279 13.745 5.16835 13.8691 5.09206L13.909 5.06879C13.7871 5.54658 13.7345 6.03939 13.7527 6.53214C13.7992 7.61303 14.1285 8.92339 15.1495 9.50541C15.7098 9.83009 16.3653 9.95053 17.0045 9.84623C17.6436 9.74193 18.2269 9.41934 18.6549 8.93337C18.8301 6.82259 18.2469 6.21619 16.9055 7.11415C16.8305 7.15998 16.7658 7.22071 16.7152 7.29259C16.6647 7.36446 16.6294 7.44595 16.6117 7.53201C16.5939 7.61806 16.594 7.70684 16.6119 7.79286C16.6299 7.87888 16.6653 7.9603 16.7159 8.03207C16.7512 8.04134 16.7814 8.06424 16.7998 8.09573C16.8182 8.12723 16.8233 8.16475 16.8141 8.20003C16.8048 8.23531 16.7819 8.26547 16.7504 8.28387C16.7189 8.30227 16.6814 8.3074 16.6461 8.29814C15.4022 8.11189 17.3479 5.50446 18.7979 6.5787C21.0062 8.215 17.6571 10.879 15.7581 10.1307Z" fill="#703838"/>
<path d="M31.0868 7.93569C31.0052 8.66883 30.797 9.38226 30.4715 10.0442C29.3042 12.1395 25.8154 12.9477 23.8199 11.4112C21.8245 9.87463 23.8199 6.03 25.8553 7.61974C26.5205 8.14522 26.597 9.76488 25.8121 10.2272C25.2168 10.5764 24.7645 10.1607 24.8975 9.56201C24.9119 9.52611 24.9379 9.49607 24.9713 9.47668C25.0048 9.45729 25.0437 9.44966 25.082 9.45502C25.1203 9.46038 25.1557 9.47842 25.1826 9.50625C25.2094 9.53408 25.2261 9.57011 25.2301 9.60857C26.2544 8.01883 25.8221 7.56764 23.933 8.25497C23.6479 8.5346 23.4592 8.89766 23.394 9.29164C23.3288 9.68563 23.3906 10.0901 23.5705 10.4467C23.7716 10.7257 24.0275 10.9608 24.3226 11.1375C24.6177 11.3142 24.9457 11.4288 25.2866 11.4743C26.1879 11.634 27.3486 11.7703 28.23 11.4444C29.8563 10.8358 30.558 9.30592 30.6545 7.65965C30.8075 7.75277 30.9338 7.83924 31.0868 7.93569Z" fill="#703838"/>
<path d="M33.3684 13.809C33.24 13.6563 33.0871 13.5259 32.9161 13.4232C32.5831 13.2132 32.2065 13.0821 31.8151 13.04C31.4237 12.9979 31.0279 13.046 30.6579 13.1804C29.8996 13.4698 29.1779 14.1549 29.1979 15.0329C29.1828 15.2396 29.2255 15.4464 29.3212 15.6303C29.417 15.8141 29.5619 15.9677 29.7399 16.0739C29.9811 16.2078 30.2523 16.2787 30.5282 16.2801C30.9716 16.2934 31.0259 16.0339 30.6911 15.5018C30.6627 15.5302 30.6257 15.5484 30.5858 15.5536C30.546 15.5588 30.5055 15.5508 30.4707 15.5307C30.4359 15.5107 30.4086 15.4797 30.3932 15.4426C30.3777 15.4055 30.3749 15.3644 30.3851 15.3255C30.7377 14.2114 32.5303 15.7712 31.3264 16.5361C30.1224 17.3011 28.5959 16.2568 28.7256 14.8732C28.8786 13.2769 30.5115 12.4388 31.9649 12.5818C32.4286 12.6409 32.8749 12.7961 33.2753 13.0374C33.252 13.0806 33.2287 13.1172 33.2054 13.1538C33.2734 13.3686 33.3278 13.5874 33.3684 13.809V13.809Z" fill="#703838"/>
<path d="M21.7779 14.9231C21.7382 14.8845 21.7126 14.8337 21.7054 14.7788C21.6981 14.7238 21.7096 14.6681 21.738 14.6205L21.8411 14.4708C21.8629 14.4361 21.8953 14.4093 21.9334 14.3943C21.9715 14.3792 22.0135 14.3767 22.0531 14.387C22.0928 14.3974 22.1281 14.4202 22.154 14.452C22.1798 14.4838 22.1949 14.523 22.197 14.564C22.197 15.0096 24.9341 14.4675 23.5805 13.3667C23.3205 13.1491 22.9916 13.0312 22.6526 13.0341C22.0621 13.0348 21.4804 13.1773 20.9564 13.4498C20.6339 13.6355 20.3404 13.8675 20.0851 14.1382C20.2535 13.9172 20.4333 13.7052 20.6239 13.503C20.4866 13.513 20.3488 13.513 20.2115 13.503C20.4696 13.2707 20.7654 13.0841 21.0862 12.9509C21.8777 12.6184 23.2379 12.2558 23.9131 13.0507C25.0372 14.3544 22.7058 16.0938 21.7779 14.9231Z" fill="#703838"/>
<path d="M13.3802 18.3621C13.3001 17.9861 13.1337 17.6338 12.8942 17.3331C12.6547 17.0324 12.3486 16.7915 12 16.6293C10.8393 16.0041 9.8881 16.8788 9.78168 18.0129C9.71516 18.7578 10.5267 19.5793 11.0688 18.7379C11.0833 18.7127 11.091 18.6841 11.091 18.655C11.0911 18.6259 11.0835 18.5973 11.069 18.572C11.0545 18.5468 11.0337 18.5258 11.0085 18.5111C10.9834 18.4964 10.9549 18.4886 10.9258 18.4884C10.2972 18.4884 10.2872 18.1559 10.4435 17.6237C10.8559 16.2269 12.6918 17.6237 12.9811 18.3587C13.0184 18.4485 13.0452 18.5422 13.0609 18.6381L13.3802 18.3621Z" fill="#703838"/>
<g opacity="0.4">
<path opacity="0.4" d="M27.3322 24.1057C27.3322 24.6012 26.6671 25.0036 25.8389 25.0036C25.0108 25.0036 24.3456 24.6012 24.3456 24.1057C24.3456 23.6101 25.0108 23.2077 25.8389 23.2077C26.6671 23.2077 27.3322 23.6101 27.3322 24.1057Z" fill="#DB5D7B"/>
<path opacity="0.4" d="M17.3251 24.4282C17.3251 24.9238 16.66 25.3262 15.8318 25.3262C15.0037 25.3262 14.3419 24.9238 14.3419 24.4282C14.3419 23.9327 15.007 23.5303 15.8318 23.5303C16.6566 23.5303 17.3251 23.9327 17.3251 24.4282Z" fill="#DB5D7B"/>
</g>
<path d="M14.3416 19.2334C14.6207 18.8921 14.9781 18.6231 15.3834 18.4494C15.7887 18.2757 16.2299 18.2024 16.6696 18.2357C17.0452 18.2444 17.413 18.3438 17.7418 18.5255C18.0705 18.7073 18.3505 18.9658 18.5576 19.2792C18.7648 19.5926 18.893 19.9514 18.9314 20.3251C18.9699 20.6987 18.9173 21.0762 18.7782 21.4251C18.7416 21.5182 18.572 21.5182 18.5853 21.3985C18.6177 21.1242 18.5927 20.8461 18.5121 20.5819C18.4314 20.3177 18.2968 20.0732 18.1167 19.8637C17.9366 19.6543 17.715 19.4845 17.466 19.3651C17.2169 19.2457 16.9457 19.1793 16.6696 19.1702C16.402 19.1647 16.136 19.2131 15.8874 19.3125C15.6389 19.4119 15.4129 19.5603 15.2229 19.7489C14.8438 20.1247 14.9335 20.6834 14.6741 21.1091C14.6499 21.1495 14.6168 21.1838 14.5774 21.2096C14.538 21.2354 14.4933 21.2519 14.4466 21.258C14.3999 21.264 14.3525 21.2595 14.3078 21.2447C14.2631 21.2298 14.2224 21.2051 14.1886 21.1723C13.6398 20.6136 13.8826 19.7888 14.3416 19.2334Z" fill="#390A0A"/>
<path d="M14.5909 20.893C14.5931 21.1708 14.6499 21.4454 14.7582 21.7012C14.8666 21.957 15.0242 22.1889 15.2222 22.3838C15.4201 22.5787 15.6545 22.7327 15.912 22.8369C16.1695 22.9412 16.445 22.9938 16.7227 22.9916C17.284 22.996 17.8242 22.7775 18.2245 22.384C18.6248 21.9906 18.8526 21.4543 18.8579 20.893C18.8557 20.6148 18.7988 20.3397 18.6903 20.0835C18.5818 19.8273 18.4239 19.595 18.2257 19.3998C18.0274 19.2046 17.7926 19.0504 17.5347 18.946C17.2769 18.8415 17.0009 18.7889 16.7227 18.7911C16.1614 18.7875 15.6217 19.0069 15.222 19.401C14.8223 19.7951 14.5953 20.3317 14.5909 20.893Z" fill="white"/>
<path d="M18.1296 20.9695C18.1296 21.914 17.5343 22.6789 16.7993 22.6789C16.0643 22.6789 15.469 21.914 15.469 20.9695C15.469 20.0249 16.0643 19.26 16.7993 19.26C17.5343 19.26 18.1296 20.0249 18.1296 20.9695Z" fill="#80422B"/>
<path d="M17.9634 20.9695C17.9634 21.7876 17.4445 22.4495 16.8093 22.4495C16.1741 22.4495 15.6519 21.7843 15.6519 20.9695C15.6519 20.1547 16.1708 19.4895 16.8093 19.4895C17.4479 19.4895 17.9634 20.1513 17.9634 20.9695Z" fill="#390A0A"/>
<path d="M17.8038 19.8187C17.8038 20.0016 17.5876 20.1513 17.3149 20.1513C17.0422 20.1513 16.826 20.0016 16.826 19.8187C16.826 19.6358 17.0455 19.4861 17.3149 19.4861C17.5843 19.4861 17.8038 19.6358 17.8038 19.8187Z" fill="white"/>
<path d="M27.4348 19.1136C27.1554 18.7725 26.798 18.5037 26.3927 18.3301C25.9875 18.1564 25.5464 18.0829 25.1067 18.1159C24.7307 18.1244 24.3625 18.2239 24.0333 18.4058C23.7042 18.5877 23.424 18.8466 23.2168 19.1604C23.0095 19.4742 22.8814 19.8335 22.8433 20.2077C22.8052 20.5818 22.8584 20.9596 22.9981 21.3087C23.0347 21.4018 23.2043 21.4018 23.191 21.2821C23.1586 21.0077 23.1836 20.7297 23.2642 20.4655C23.3449 20.2013 23.4795 19.9568 23.6596 19.7473C23.8397 19.5378 24.0613 19.368 24.3104 19.2487C24.5595 19.1293 24.8306 19.0629 25.1067 19.0538C25.3741 19.0478 25.64 19.0957 25.8885 19.1945C26.137 19.2934 26.3632 19.4412 26.5534 19.6291C26.9326 20.005 26.8428 20.567 27.1022 20.9927C27.1264 21.0331 27.1595 21.0674 27.1989 21.0932C27.2383 21.1189 27.283 21.1355 27.3297 21.1416C27.3764 21.1476 27.4239 21.1431 27.4685 21.1283C27.5132 21.1134 27.554 21.0887 27.5878 21.0559C28.1232 20.4905 27.8937 19.6591 27.4348 19.1136Z" fill="#390A0A"/>
<path d="M22.7657 20.893C22.7679 21.1707 22.8248 21.4454 22.9331 21.7012C23.0414 21.957 23.199 22.1889 23.397 22.3838C23.595 22.5787 23.8294 22.7326 24.0869 22.8369C24.3443 22.9412 24.6198 22.9937 24.8976 22.9916C25.1754 22.9937 25.4509 22.9412 25.7083 22.8369C25.9658 22.7326 26.2002 22.5787 26.3981 22.3838C26.5961 22.1889 26.7538 21.957 26.8621 21.7012C26.9704 21.4454 27.0273 21.1707 27.0294 20.893C27.025 20.3317 26.7981 19.7951 26.3984 19.401C25.9986 19.0069 25.4589 18.7875 24.8976 18.7911C24.3363 18.7875 23.7965 19.0069 23.3968 19.401C22.9971 19.7951 22.7701 20.3317 22.7657 20.893Z" fill="white"/>
<path d="M26.2012 20.9695C26.2012 21.914 25.6025 22.6789 24.8708 22.6789C24.1392 22.6789 23.5405 21.914 23.5405 20.9695C23.5405 20.0249 24.1358 19.26 24.8708 19.26C25.6059 19.26 26.2012 20.0249 26.2012 20.9695Z" fill="#80422B"/>
<path d="M26.0219 20.9695C26.0219 21.7876 25.5064 22.4495 24.8679 22.4495C24.2293 22.4495 23.7138 21.7843 23.7138 20.9695C23.7138 20.1547 24.2293 19.4895 24.8679 19.4895C25.5064 19.4895 26.0219 20.1513 26.0219 20.9695Z" fill="#390A0A"/>
<path d="M25.8754 19.8187C25.8754 20.0016 25.6559 20.1513 25.3865 20.1513C25.1171 20.1513 24.8976 20.0016 24.8976 19.8187C24.8976 19.6358 25.1171 19.4861 25.3865 19.4861C25.6559 19.4861 25.8754 19.6358 25.8754 19.8187Z" fill="white"/>
<path d="M24.0859 27.2685C23.5737 26.6599 22.1536 25.1866 21.2989 26.058C21.0428 26.3207 20.9663 26.1943 20.6836 26.0846C20.5067 26.0102 20.316 25.9738 20.1241 25.9778C19.9322 25.9818 19.7432 26.0261 19.5695 26.1078C19.1671 26.3107 18.9742 26.7098 18.6482 26.9958C18.4587 27.1563 18.3047 27.3546 18.1959 27.5778C18.1738 27.5807 18.1529 27.5897 18.1356 27.6038C18.1183 27.6179 18.1053 27.6365 18.0981 27.6576C18.0908 27.6787 18.0896 27.7014 18.0945 27.7232C18.0995 27.7449 18.1104 27.7648 18.1261 27.7807C19.044 28.6887 19.9253 29.4935 21.2823 29.3838C23.178 29.2274 23.9429 27.5147 23.9828 27.5147C24.011 27.5139 24.0384 27.505 24.0616 27.4891C24.0849 27.4732 24.103 27.4509 24.1139 27.4249C24.1248 27.3989 24.1279 27.3703 24.123 27.3426C24.118 27.3149 24.1051 27.2892 24.0859 27.2685V27.2685Z" fill="#AB0048"/>
<path d="M19.2634 27.2885C19.2634 27.2885 21.4418 27.2885 22.6923 27.2087C23.2544 27.1721 20.6736 28.7019 19.2634 27.2885Z" fill="white"/>
<path d="M14.3052 18.2124C14.3052 18.2124 16.1211 15.7912 19.2673 18.2124C19.2639 18.2124 17.9303 17.2446 14.3052 18.2124Z" fill="#390A0A"/>
<path d="M22.8556 18.2124C22.8556 18.2124 24.6681 15.7912 27.8177 18.2124C27.8177 18.2124 26.484 17.2446 22.8556 18.2124Z" fill="#390A0A"/>
<path d="M22.2869 22.6722C22.1586 22.5705 22.0017 22.5116 21.8382 22.5039C21.6747 22.4961 21.5129 22.5399 21.3756 22.629C21.4003 22.3163 21.3369 22.0029 21.1927 21.7244C20.8867 21.2555 20.4444 21.8075 20.3213 22.1102C20.2359 22.328 20.1973 22.5615 20.2082 22.7953C19.8191 22.5891 19.3934 22.5625 19.2105 23.0015C18.9212 23.6667 20.2082 24.8606 20.8435 24.6278C21.4787 24.395 23.1582 23.5636 22.2869 22.6722Z" fill="#CD8B6D"/>
<path d="M12.0132 23.5636L11.9733 23.5237C11.8004 23.3441 11.531 23.6168 11.7039 23.793C12.5219 24.6648 13.0806 25.7475 13.317 26.9193C13.5732 28.1091 13.626 29.3337 13.4733 30.5411C13.4226 30.8749 13.3414 31.2033 13.2305 31.5222C13.0675 32.0078 12.2128 34.0365 11.5243 33.0089C11.3419 32.7728 11.1919 32.5133 11.0787 32.2373C10.9484 31.7946 10.8626 31.34 10.8226 30.8803C10.7616 30.3782 10.7305 29.8729 10.7295 29.3671C10.7627 27.8962 11.0173 26.4387 11.4844 25.0436C11.521 24.9272 11.3447 24.8839 11.3048 24.997C10.5266 27.0856 10.0909 29.1609 10.5 31.3892C10.6031 31.9379 11.2317 34.5554 12.4123 33.6906C13.8092 32.6663 13.889 30.6741 13.9056 29.0844C13.9289 27.0623 13.4599 25.0436 12.0132 23.5636Z" fill="#7FADC4"/>
<path d="M12.725 23.8196C12.725 23.9908 12.657 24.1549 12.536 24.2759C12.415 24.3969 12.2509 24.4648 12.0798 24.4648C11.995 24.4648 11.9111 24.4482 11.8329 24.4157C11.7546 24.3833 11.6835 24.3358 11.6236 24.2759C11.5636 24.216 11.5161 24.1448 11.4837 24.0666C11.4513 23.9883 11.4346 23.9044 11.4346 23.8196C11.4346 23.7349 11.4513 23.651 11.4837 23.5727C11.5161 23.4945 11.5636 23.4233 11.6236 23.3634C11.6835 23.3035 11.7546 23.256 11.8329 23.2235C11.9111 23.1911 11.995 23.1744 12.0798 23.1744C12.2509 23.1744 12.415 23.2424 12.536 23.3634C12.657 23.4844 12.725 23.6485 12.725 23.8196V23.8196Z" fill="white"/>
<path d="M29.3439 23.8064L29.3838 23.7631C29.5567 23.5869 29.8261 23.8596 29.6565 24.0358C28.8369 24.9057 28.2771 25.9874 28.0402 27.1588C27.785 28.3499 27.7333 29.5756 27.8872 30.7839C27.9371 31.1175 28.0172 31.4459 28.1266 31.765C28.2896 32.2506 29.1477 34.2793 29.8328 33.2516C30.0153 33.0144 30.1652 32.7538 30.2784 32.4767C30.4088 32.0352 30.4945 31.5817 30.5345 31.1231C30.5964 30.6211 30.6287 30.1158 30.631 29.6099C30.5949 28.139 30.3393 26.6817 29.8727 25.2863C29.8394 25.1699 30.0124 25.1267 30.0523 25.2365C30.8305 27.3284 31.2662 29.4037 30.8571 31.632C30.754 32.1807 30.1254 34.7982 28.9448 33.9334C27.5479 32.9091 27.4715 30.9169 27.4515 29.3272C27.4282 27.3084 27.8971 25.283 29.3439 23.8064Z" fill="#7FADC4"/>
<path d="M29.9163 23.8995C29.9163 23.9859 29.899 24.0715 29.8653 24.1511C29.8316 24.2307 29.7823 24.3027 29.7203 24.3629C29.6583 24.4231 29.5847 24.4702 29.5042 24.5014C29.4236 24.5326 29.3375 24.5474 29.2511 24.5447C29.1664 24.5447 29.0825 24.528 29.0042 24.4956C28.9259 24.4632 28.8548 24.4156 28.7949 24.3557C28.735 24.2958 28.6874 24.2247 28.655 24.1464C28.6226 24.0681 28.6059 23.9842 28.6059 23.8995C28.6059 23.8148 28.6226 23.7309 28.655 23.6526C28.6874 23.5743 28.735 23.5032 28.7949 23.4433C28.8548 23.3833 28.9259 23.3358 29.0042 23.3034C29.0825 23.271 29.1664 23.2543 29.2511 23.2543C29.3375 23.2516 29.4236 23.2663 29.5042 23.2975C29.5847 23.3288 29.6583 23.3759 29.7203 23.436C29.7823 23.4962 29.8316 23.5683 29.8653 23.6479C29.899 23.7275 29.9163 23.813 29.9163 23.8995Z" fill="white"/>
</g>
</g>
</svg>
