<svg width="41" height="40" viewBox="0 0 41 40" fill="none" xmlns="http://www.w3.org/2000/svg">
<mask id="mask0" mask-type="alpha" maskUnits="userSpaceOnUse" x="0" y="0" width="41" height="41">
<path d="M40.22 20.11C40.22 25.4435 38.1013 30.5586 34.3299 34.3299C30.5586 38.1013 25.4435 40.22 20.11 40.22C14.7765 40.22 9.66143 38.1013 5.89008 34.3299C2.11872 30.5586 0 25.4435 0 20.11C0 14.7765 2.11872 9.66143 5.89008 5.89008C9.66143 2.11872 14.7765 0 20.11 0C25.4435 0 30.5586 2.11872 34.3299 5.89008C38.1013 9.66143 40.22 14.7765 40.22 20.11Z" fill="white"/>
</mask>
<g mask="url(#mask0)">
<path d="M22.0045 35.8658C20.7144 36.9462 18.002 35.8658 18.002 35.8658C18.2239 35.3998 18.3688 34.901 18.431 34.3886C18.4404 34.3418 18.4468 34.2944 18.4503 34.2467C18.5001 33.8424 18.5195 33.4348 18.5084 33.0276C18.5084 32.7825 18.5084 32.5373 18.4697 32.3019C18.41 31.5696 18.2891 30.8435 18.1084 30.1313L21.5723 30.0249C21.3648 30.765 21.282 31.5346 21.3272 32.3019C21.3272 32.6567 21.3756 33.005 21.4175 33.334C21.4594 33.663 21.5046 33.9145 21.5594 34.179L21.5885 34.3145C21.6946 34.8398 21.8335 35.3579 22.0045 35.8658Z" fill="#CD8B6D"/>
<path d="M10.4129 40.494C10.371 40.2843 11.8514 36.8849 15.4765 35.4949C16.0137 35.2886 16.5701 35.1363 17.1375 35.0401C17.9145 34.9143 18.7036 34.8797 19.4887 34.9369C20.9502 35.0194 22.4012 35.2353 23.8234 35.5819C24.5879 35.7733 25.3304 36.0435 26.0391 36.3883C28.1645 37.4332 29.3482 39.0652 29.9739 41.426C31.0737 45.5801 11.6643 46.9121 10.4129 40.494Z" fill="#CD8B6D"/>
<path d="M10.4129 40.494C10.3742 40.2972 11.6707 37.301 14.8185 35.7819C15.0282 35.6787 15.2475 35.582 15.4636 35.4949C17.9277 36.9688 23.2557 39.3006 26.0262 36.3947C26.4453 36.6002 26.8457 36.8419 27.2227 37.1172C28.616 38.1428 29.4804 39.5586 29.961 41.4325C31.0737 45.5801 11.6643 46.9122 10.4129 40.494Z" fill="#ADC0E0"/>
<path d="M27.2393 37.1172C24.9558 40.3101 18.2087 37.5268 14.819 35.7819C15.0286 35.6787 15.2479 35.582 15.464 35.4949C17.9281 36.9688 23.2561 39.3006 26.0266 36.3947C26.4513 36.5994 26.8571 36.8411 27.2393 37.1172Z" fill="white"/>
<path d="M26.7876 22.3069C24.1494 21.2007 20.8919 21.849 18.1215 21.8361C16.3476 21.8361 14.5737 21.7006 12.787 21.6103C11.9806 21.5716 11.6033 21.778 11.3743 22.5166C11.364 22.5545 11.3646 22.5946 11.376 22.6323C11.3874 22.6699 11.4092 22.7036 11.4388 22.7294C10.9518 24.5581 10.5293 26.8738 11.7613 28.4316C13.2256 30.2958 15.2768 30.8183 17.5151 30.0442C17.5482 30.0319 17.5781 30.012 17.6022 29.9862C18.6632 30.1209 19.7123 30.3366 20.7403 30.6312C21.3144 30.8054 21.8788 31.0279 22.3788 30.8505C22.3974 30.8658 22.4199 30.8757 22.4438 30.8791C22.4677 30.8825 22.492 30.8793 22.5142 30.8699C24.7557 30.0281 27.5875 29.6217 28.4647 27.0254C29.0646 25.2322 28.7034 23.1132 26.7876 22.3069Z" fill="#4A1D1D"/>
<path d="M28.1036 20.6847C28.2578 20.4788 28.4684 20.322 28.7099 20.2332C28.934 20.1401 29.1676 20.072 29.4066 20.03C29.8742 19.9364 30.4451 19.93 30.7773 20.3331C30.9899 20.6592 31.102 21.0405 31.0998 21.4297C31.1707 23.0198 29.8323 23.9002 28.4583 24.2776C28.1971 24.3485 27.7456 24.6001 27.5521 24.3002C27.2328 23.7583 27.7101 21.2556 28.1036 20.6847Z" fill="#CD8B6D"/>
<path d="M28.1004 21.8877C28.1004 21.8877 29.7839 20.3267 30.0097 21.1878C30.1335 21.7875 30.0865 22.4099 29.8743 22.9843C29.8743 22.9843 29.9001 21.8651 28.9647 22.2683C28.9647 22.2683 29.2873 24.1486 27.8714 23.2713C27.7297 23.0538 27.6747 22.7911 27.7171 22.535C27.7595 22.2789 27.8962 22.048 28.1004 21.8877Z" fill="#B66C50"/>
<path d="M11.9903 20.6847C11.8361 20.4788 11.6255 20.322 11.384 20.2332C11.1599 20.1401 10.9263 20.072 10.6873 20.03C10.2197 19.9364 9.64881 19.93 9.31661 20.3331C9.10401 20.6592 8.99186 21.0405 8.99409 21.4297C8.92313 23.0198 10.2648 23.9002 11.6355 24.2776C11.8968 24.3485 12.3483 24.6001 12.5418 24.3002C12.8644 23.7583 12.387 21.2556 11.9903 20.6847Z" fill="#CD8B6D"/>
<path d="M11.9967 21.8877C11.9967 21.8877 10.3132 20.3267 10.0842 21.1878C9.9625 21.7879 10.0105 22.41 10.2229 22.9843C10.2229 22.9843 10.1938 21.8651 11.1291 22.2683C11.1291 22.2683 10.8066 24.1486 12.2225 23.2713C12.3652 23.0544 12.4213 22.7918 12.3794 22.5355C12.3376 22.2792 12.201 22.048 11.9967 21.8877Z" fill="#B66C50"/>
<path d="M28.5805 19.3559C28.5482 19.6623 28.5095 19.9719 28.4676 20.2848C28.2218 22.2711 27.8621 24.2418 27.3904 26.1869C26.4615 29.8443 21.9365 31.6407 20.3239 31.5182C12.0157 30.4023 11.5836 24.7001 11.6416 24.0776C11.7416 23.11 11.5707 22.0554 11.5094 21.0878C11.4739 20.5718 11.3997 20.0429 11.3255 19.5139C11.1639 18.6287 11.1334 17.7246 11.2352 16.8305C11.2399 16.7871 11.2474 16.744 11.2578 16.7015C11.4227 15.8047 11.6821 14.928 12.0319 14.0859C13.0865 11.5057 15.2184 8.64816 18.263 8.603C18.9883 8.59722 19.71 8.70607 20.4013 8.92552C21.4055 9.24463 22.3664 9.6866 23.2621 10.2414C25.1779 11.3993 27.0904 12.7184 28.0483 14.8277C28.7192 16.3016 28.7385 17.8013 28.5805 19.3559Z" fill="#FFC29C"/>
<path d="M13.0513 7.33544C12.5889 7.69815 12.1633 8.10541 11.7805 8.55135C11.4417 8.94151 11.1435 9.36511 10.8904 9.81563C10.0744 11.3059 9.69548 12.9962 9.79703 14.6922L9.83895 15.3727C9.98393 16.7855 10.3091 18.1739 10.8065 19.5042C10.8936 19.7429 10.9871 19.9815 11.0807 20.2202C11.0898 20.2421 11.1017 20.2626 11.1161 20.2815C11.1486 20.3351 11.1975 20.3769 11.2556 20.4004C11.3137 20.424 11.3779 20.4281 11.4385 20.4121C11.4992 20.3961 11.553 20.3609 11.592 20.3118C11.631 20.2627 11.653 20.2022 11.6548 20.1396C11.8063 18.4883 11.9321 17.2627 13.0706 15.9468C13.935 14.9599 15.0058 14.1245 15.9346 13.2086C16.7502 12.4287 17.4496 11.5359 18.0117 10.5574L18.1439 10.3123C18.4193 9.7889 18.6408 9.23887 18.8051 8.67068C18.991 8.34891 19.207 8.04546 19.4501 7.7644C19.5357 7.7644 19.6177 7.73041 19.6782 7.66993C19.7387 7.60944 19.7726 7.52741 19.7726 7.44187C19.6952 3.55226 14.6736 6.06147 13.0513 7.33544Z" fill="#603030"/>
<path d="M18.1344 10.335L18.0021 10.5801C15.8703 10.3898 13.6352 12.9797 12.687 14.631C11.6323 16.4693 11.4388 18.269 11.1066 20.288C11.0922 20.2692 11.0803 20.2486 11.0711 20.2267C10.9776 19.988 10.8841 19.7494 10.797 19.5107C10.861 17.1869 11.7141 14.9541 13.2159 13.1796C14.3738 11.825 16.1573 9.63187 18.1344 10.335Z" fill="#774545"/>
<path d="M9.79736 14.6954C10.1045 14.155 10.4596 13.6434 10.8585 13.1666C12.7323 10.9477 15.7737 7.93209 18.8635 7.85791C18.9731 7.85791 18.9699 8.01917 18.8635 8.02885C16.0865 8.27396 13.1516 11.0089 11.4454 13.0699C10.8476 13.7921 10.3135 14.5647 9.84896 15.3791L9.79736 14.6954Z" fill="#774545"/>
<path d="M18.9438 7.66443C17.5731 7.6354 16.0411 7.14839 14.6994 7.61283C13.3602 8.06374 12.119 8.76534 11.042 9.68019L10.8904 9.81565C11.1435 9.36513 11.4418 8.94153 11.7806 8.55137C11.829 8.51589 11.8741 8.48686 11.9225 8.45783C12.8643 7.85794 14.0512 7.14517 15.1897 7.03229C16.4798 6.90328 17.6924 7.2387 18.9728 7.43866C19.1019 7.45801 19.0696 7.66443 18.9438 7.66443Z" fill="#774545"/>
<path d="M30.9706 15.7855C30.9481 14.2245 30.2805 12.899 29.6322 11.4251L29.3387 10.7252C29.2645 10.5478 29.1936 10.3672 29.1258 10.1801C28.7323 9.12224 28.4421 8.04824 28.0454 7.02585L27.7229 6.28727C27.4005 5.57849 26.9756 4.92103 26.4618 4.33601C25.2814 3.02335 23.7429 2.75888 22.2335 3.18461C22.1077 3.22331 21.9852 3.26201 21.8594 3.30717C21.5403 3.42101 21.2308 3.56014 20.9338 3.72322C20.7228 3.83895 20.5182 3.96599 20.321 4.1038C20.1952 4.18443 20.0726 4.26828 19.9533 4.36181C19.3663 4.79399 18.8148 5.28745 18.2762 5.75834L18.0536 5.94862C17.515 6.3808 16.8474 6.73557 16.283 7.16453L16.1411 7.27419C15.9377 7.43364 15.7517 7.61418 15.5863 7.8128C15.5519 7.75741 15.5036 7.71198 15.4463 7.68101C15.3889 7.65004 15.3244 7.63459 15.2592 7.63622C15.194 7.63785 15.1304 7.6565 15.0746 7.6903C15.0189 7.7241 14.9729 7.77188 14.9413 7.82892C14.1769 9.38993 15.1638 11.1509 15.9734 12.5184C17.1409 14.5051 18.7309 15.1663 20.9531 15.692C22.2858 15.9847 23.5615 16.4934 24.7298 17.1982C25.2685 17.5207 25.7909 17.9077 26.3167 18.2593C26.6905 18.5084 27.0346 18.7995 27.3423 19.1269C27.5455 19.3236 27.7358 19.8945 27.9873 20.0944C28.8517 20.7395 29.5128 20.2138 29.9773 19.4268C30.0418 19.3172 30.1031 19.2075 30.1611 19.1043C30.4003 18.5988 30.5945 18.0732 30.7417 17.5336C30.8512 17.1523 30.9236 16.7613 30.9577 16.3661C30.9722 16.1729 30.9765 15.9792 30.9706 15.7855Z" fill="#4A1D1D"/>
<path d="M16.2897 7.16125C18.0475 11.138 23.0433 12.6828 26.6556 14.9469C28.0715 15.8306 29.4551 16.9659 30.0098 18.5979C30.0679 18.7624 30.1195 18.9204 30.1614 19.0881C30.1033 19.2042 30.0421 19.3139 29.9776 19.4106C29.7665 18.4939 29.3221 17.6473 28.6875 16.953C27.1619 15.2953 25.0139 14.3277 23.0433 13.2988C20.1987 11.812 17.3766 10.0736 16.1446 7.25801L16.2897 7.16125Z" fill="#703838"/>
<path d="M18.0601 5.94534C18.3052 6.33236 18.5665 6.6936 18.8213 7.03224C20.1114 8.77709 22.0304 9.90268 23.8784 10.9767C26.5166 12.5054 29.2516 14.0181 30.9578 16.3499C30.9673 16.1619 30.9673 15.9735 30.9578 15.7855C29.6483 14.1729 27.7648 12.9215 25.9845 11.8636C23.9558 10.6542 21.8175 9.60596 20.0662 7.99335C19.3586 7.34032 18.753 6.58473 18.2698 5.75183L18.0601 5.94534Z" fill="#703838"/>
<path d="M29.6322 11.4251C29.1325 11.0798 28.5905 10.8002 28.0196 10.593C26.3134 9.94791 24.3686 9.4738 22.9141 8.31272C21.6155 7.25965 20.5982 5.9011 19.9533 4.35861C20.0726 4.26508 20.1952 4.18122 20.321 4.10059C20.6295 4.82717 21.0248 5.51376 21.4982 6.14538C22.8528 7.96763 24.6202 8.86101 26.723 9.60281C27.6232 9.90179 28.4961 10.2773 29.3322 10.7252L29.6322 11.4251Z" fill="#703838"/>
<path d="M28.0454 7.02263C26.0943 6.78209 24.2629 5.95296 22.7947 4.64564C22.4233 4.24659 22.1135 3.79439 21.8755 3.30395C22.0013 3.25879 22.1239 3.2201 22.2497 3.1814C22.9302 4.17476 23.8978 5.06815 24.4751 5.35842C25.504 5.8463 26.6071 6.15914 27.739 6.28406L28.0454 7.02263Z" fill="#703838"/>
<g opacity="0.4">
<path opacity="0.4" d="M26.2197 24.0228C26.2197 24.5066 25.5747 24.8968 24.7716 24.8968C23.9685 24.8968 23.3235 24.5066 23.3235 24.0228C23.3235 23.539 23.9685 23.152 24.7716 23.152C25.5747 23.152 26.2197 23.5422 26.2197 24.0228Z" fill="#DB5D7B"/>
<path opacity="0.4" d="M16.515 24.3357C16.515 24.8194 15.87 25.2097 15.0669 25.2097C14.2638 25.2097 13.622 24.8194 13.622 24.3357C13.622 23.8519 14.2671 23.4648 15.0669 23.4648C15.8668 23.4648 16.515 23.8551 16.515 24.3357Z" fill="#DB5D7B"/>
</g>
<path d="M20.979 23.01C20.6049 23.01 20.4114 23.3325 20.1308 23.4454C20.1476 22.9678 20.2146 22.4932 20.3307 22.0296C20.4006 21.483 20.4125 20.9305 20.3662 20.3815C20.3662 20.3815 20.3662 20.3815 20.3662 20.3621C20.3662 20.1235 20.2469 19.8912 19.9921 20.146C19.7373 20.4008 19.7405 20.8201 19.7018 21.1362C19.618 21.8102 19.7018 22.4585 19.5438 23.11C19.3341 22.9294 19.0987 22.7004 18.8407 22.852C18.4569 23.0778 18.7439 23.5551 18.9278 23.7841C19.1535 24.0647 19.6792 24.6226 20.0953 24.5097C20.3684 24.413 20.6111 24.2456 20.7986 24.0247C20.9861 23.8038 21.1117 23.5371 21.1628 23.2519C21.1702 23.2236 21.171 23.194 21.1652 23.1653C21.1594 23.1367 21.1472 23.1097 21.1295 23.0864C21.1118 23.0631 21.0891 23.0442 21.063 23.0309C21.037 23.0177 21.0082 23.0106 20.979 23.01Z" fill="#CD8B6D"/>
<path d="M17.4187 18.6399C16.7381 18.1013 15.906 18.1916 15.1062 18.3174C14.4611 18.4077 13.6097 18.6786 13.2194 19.2495C12.6228 20.1235 13.3904 20.7331 13.7806 21.4878C13.8451 21.6136 13.9838 21.562 14.0257 21.4587C14.0454 21.4522 14.0632 21.4408 14.0773 21.4256C14.0914 21.4104 14.1014 21.3918 14.1064 21.3717C14.1479 21.2323 14.1707 21.0881 14.1741 20.9427C14.1825 20.9198 14.1825 20.8947 14.1741 20.8718C14.3902 19.8687 15.3319 19.3527 16.3156 19.2946C17.2993 19.2366 17.4154 20.1429 17.6734 20.8879C17.6734 20.9072 17.6896 20.9266 17.696 20.9492C17.7025 20.9717 17.7476 21.0878 17.7767 21.1524C17.8831 21.3749 17.8637 21.4136 18.2411 21.0233C18.8539 20.3622 18.1959 19.2591 17.4187 18.6399Z" fill="#390A0A"/>
<path d="M13.8641 20.9072C13.8684 21.4515 14.0885 21.9719 14.4761 22.354C14.8637 22.7362 15.3872 22.9489 15.9315 22.9455C16.2013 22.9476 16.4689 22.8966 16.7189 22.7953C16.969 22.694 17.1967 22.5445 17.389 22.3552C17.5812 22.1659 17.7343 21.9406 17.8395 21.6921C17.9447 21.4437 18 21.177 18.0021 20.9072C18 20.6375 17.9447 20.3709 17.8395 20.1226C17.7342 19.8744 17.5811 19.6493 17.3888 19.4603C17.1965 19.2712 16.9688 19.122 16.7187 19.0211C16.4686 18.9201 16.2011 18.8695 15.9315 18.872C15.6621 18.8699 15.395 18.9209 15.1453 19.022C14.8956 19.1231 14.6683 19.2724 14.4763 19.4614C14.2843 19.6504 14.1315 19.8753 14.0264 20.1234C13.9214 20.3715 13.8662 20.6378 13.8641 20.9072Z" fill="white"/>
<path d="M17.3119 20.9847C17.3119 21.9006 16.7346 22.6424 16.0218 22.6424C15.3091 22.6424 14.7318 21.9006 14.7318 20.9847C14.7318 20.0687 15.3091 19.3269 16.0218 19.3269C16.7346 19.3269 17.3119 20.0687 17.3119 20.9847Z" fill="#2B80B2"/>
<path d="M17.1249 20.9846C17.1249 21.778 16.6218 22.4198 16.0057 22.4198C15.3897 22.4198 14.8834 21.7748 14.8834 20.9846C14.8834 20.1944 15.3865 19.5461 16.0057 19.5461C16.625 19.5461 17.1249 20.1912 17.1249 20.9846Z" fill="#390A0A"/>
<path d="M16.506 20.1912C16.7678 20.1912 16.9801 20.0468 16.9801 19.8687C16.9801 19.6905 16.7678 19.5461 16.506 19.5461C16.2441 19.5461 16.0319 19.6905 16.0319 19.8687C16.0319 20.0468 16.2441 20.1912 16.506 20.1912Z" fill="white"/>
<path d="M21.469 21.0104C21.8463 21.4006 21.827 21.3619 21.9302 21.1394C21.9624 21.0749 21.9882 21.0039 22.014 20.9362C22.0398 20.8685 22.0302 20.8943 22.0366 20.8749C22.2946 20.1299 22.3591 19.2204 23.3944 19.2817C24.4297 19.3429 25.3296 19.8558 25.536 20.8588C25.5222 20.8797 25.5164 20.9049 25.5198 20.9297C25.5233 21.0751 25.546 21.2194 25.5876 21.3587C25.5925 21.3789 25.6025 21.3974 25.6167 21.4126C25.6308 21.4279 25.6485 21.4393 25.6682 21.4458C25.7101 21.549 25.8488 21.6006 25.9133 21.4748C26.3036 20.7201 27.0712 20.1105 26.4713 19.2365C26.0843 18.6656 25.2199 18.3947 24.5878 18.3044C23.7847 18.1915 22.9558 18.1012 22.2753 18.6269C21.5045 19.2591 20.8401 20.3621 21.469 21.0104Z" fill="#390A0A"/>
<path d="M21.7919 20.9072C21.7961 21.4516 22.0162 21.9719 22.4039 22.3541C22.7915 22.7363 23.3149 22.949 23.8592 22.9456C24.4036 22.949 24.927 22.7363 25.3146 22.3541C25.7022 21.9719 25.9223 21.4516 25.9266 20.9072C25.9245 20.6379 25.8693 20.3716 25.7643 20.1235C25.6593 19.8754 25.5064 19.6505 25.3144 19.4615C25.1224 19.2725 24.8951 19.1232 24.6454 19.0221C24.3958 18.921 24.1286 18.87 23.8592 18.8721C23.5899 18.87 23.3227 18.921 23.073 19.0221C22.8233 19.1232 22.596 19.2725 22.404 19.4615C22.2121 19.6505 22.0592 19.8754 21.9542 20.1235C21.8491 20.3716 21.794 20.6379 21.7919 20.9072Z" fill="white"/>
<path d="M25.1235 20.9847C25.1235 21.9006 24.5429 22.6424 23.8334 22.6424C23.1238 22.6424 22.5433 21.9006 22.5433 20.9847C22.5433 20.0687 23.1206 19.3269 23.8334 19.3269C24.5461 19.3269 25.1235 20.0687 25.1235 20.9847Z" fill="#2B80B2"/>
<path d="M24.9493 20.9846C24.9493 21.778 24.4494 22.4198 23.8302 22.4198C23.2109 22.4198 22.711 21.7748 22.711 20.9846C22.711 20.1944 23.2109 19.5461 23.8302 19.5461C24.4494 19.5461 24.9493 20.1912 24.9493 20.9846Z" fill="#390A0A"/>
<path d="M24.3332 20.1912C24.595 20.1912 24.8073 20.0468 24.8073 19.8687C24.8073 19.6905 24.595 19.5461 24.3332 19.5461C24.0713 19.5461 23.8591 19.6905 23.8591 19.8687C23.8591 20.0468 24.0713 20.1912 24.3332 20.1912Z" fill="white"/>
<path d="M23.7819 25.2096C23.5698 25.9759 23.2723 26.7158 22.895 27.4156C22.8664 27.4767 22.8341 27.536 22.7982 27.593C21.8306 29.2798 20.0858 30.6763 17.583 27.1351C17.5687 27.1122 17.5525 27.0907 17.5346 27.0705C17.2315 26.6319 16.9154 26.1191 16.5864 25.5257C16.7412 25.5773 20.7889 26.8964 23.7819 25.2096Z" fill="white"/>
<path d="M22.8949 27.4157C22.8664 27.4768 22.8341 27.536 22.7982 27.5931C22.194 27.6559 21.5863 27.6785 20.9791 27.6608C19.8181 27.6285 18.7215 27.3383 17.583 27.1351C17.5687 27.1122 17.5525 27.0907 17.5346 27.0706C18.488 27.3038 19.4588 27.4591 20.4373 27.535C21.2583 27.5514 22.0794 27.5116 22.8949 27.4157Z" fill="#CD8B6D"/>
<path d="M12.1934 19.8622C12.1934 19.8622 11.8096 15.6436 17.9568 17.7981C18.039 17.4521 18.0865 17.0988 18.0987 16.7434C18.0633 16.5112 11.3612 14.8438 12.1934 19.8622Z" fill="#390A0A"/>
<path d="M27.7971 19.8622C27.7971 19.8622 28.1809 15.6436 22.0336 17.7981C21.9517 17.452 21.9031 17.0988 21.8885 16.7434C21.9272 16.5112 28.6292 14.8438 27.7971 19.8622Z" fill="#390A0A"/>
<path d="M11.11 23.8196L12.2485 31.7278L13.0032 32.2084L11.7486 24.1679L11.11 23.8196Z" fill="#24B6BC"/>
<path d="M28.4906 23.5132L28.0971 31.4956L27.394 32.0439L27.8842 23.9228L28.4906 23.5132Z" fill="#24B6BC"/>
</g>
</svg>
