<svg width="133" height="812" viewBox="0 0 133 812" fill="none" xmlns="http://www.w3.org/2000/svg">
<mask id="mask0" mask-type="alpha" maskUnits="userSpaceOnUse" x="0" y="0" width="133" height="812">
<rect width="133" height="812" fill="white"/>
</mask>
<g mask="url(#mask0)">
<rect x="-1.33325" width="135" height="135" fill="#FF356B"/>
<rect x="-1.33325" width="67.6667" height="67.6667" fill="#FFAC30"/>
<rect x="-1.33325" y="67.6666" width="67.6667" height="67.6667" fill="#FFAC30"/>
<rect x="66.1667" y="67.5" width="67.5" height="67.5" fill="#3A4276"/>
<path d="M67.5 120C96.3223 120 119 96.1102 119 67.5C119 38.8898 96.3223 15 67.5 15C38.6777 15 16 38.8898 16 67.5C16 96.1102 38.6777 120 67.5 120Z" fill="#58D8F4" stroke="white" stroke-width="30"/>
<rect x="1" y="270" width="133" height="136" fill="#FF356B"/>
<rect x="-1.33325" y="338.333" width="67.6667" height="67.6667" fill="#FFAC30"/>
<circle cx="67.3" cy="338.3" r="51.3" fill="#58D8F4" stroke="white" stroke-width="30"/>
<path d="M66 270H134V407H66V270Z" fill="#3A4276"/>
<rect x="-1.33325" y="135" width="135" height="135.833" fill="white"/>
<path d="M-1.33325 135H66.3334V202.667L32.5001 168.833L-1.33325 135Z" fill="#FFAC30"/>
<path d="M66.3335 202.5L-1.33317 202.5L-1.33317 134.833L32.5002 168.667L66.3335 202.5Z" fill="white"/>
<path d="M-1.33325 202.5H66.3334L31.1467 237.687L-1.33325 270.167V202.5Z" fill="#FF356B"/>
<path d="M66.3335 270.667H-1.33316L32.5002 236.833L66.3335 203L66.3335 270.667Z" fill="white"/>
<path d="M99.9167 169.167L133.667 135V203.333H66.1667L99.9167 169.167Z" fill="#58D8F4"/>
<rect x="-1.33325" y="405.833" width="135" height="135.833" fill="white"/>
<path d="M99.9167 507.5L133.667 473.333V541.667H66.1667L99.9167 507.5Z" fill="#FF356B"/>
<path d="M66.1668 472.392L-1.33325 541.667L-1.33325 405.833L133.667 405.833L66.1668 472.392Z" fill="#FFAC30"/>
<rect x="-1.33325" y="541.667" width="135" height="135" fill="white"/>
<path d="M66.3334 607.647L-1.33326 676.667L-1.33326 541.333H134L66.3334 607.647Z" fill="#58D8F4"/>
<path d="M-1.33325 541.333H66.3334V609L32.5001 575.167L-1.33325 541.333Z" fill="#3A4276"/>
<path d="M-1.33325 608.667H66.3334V676.333L32.5001 642.5L-1.33325 608.667Z" fill="#3A4276"/>
<path d="M133.667 676.667C115.72 676.667 98.5091 669.538 85.8192 656.848C73.1292 644.158 66 626.946 66 609C66 591.054 73.1292 573.842 85.8191 561.152C98.5091 548.463 115.72 541.333 133.667 541.333L133.667 609V676.667Z" fill="#58D8F4"/>
<rect x="1" y="676" width="133" height="136" fill="white"/>
<path d="M134 810C116.23 810 98.5221 802.941 85.9572 790.376C73.3922 777.811 66.3333 760.77 66.3333 743C66.3333 725.231 73.3922 708.189 85.9571 695.624C98.5221 683.059 116.23 676 134 676L134 743L134 810Z" fill="#FF356B"/>
<path d="M-0.5 676C17.1369 676 34.0514 683.112 46.5226 695.77C58.9938 708.429 66 725.598 66 743.5C66 761.402 58.9938 778.571 46.5226 791.23C34.0514 803.888 17.1369 811 -0.49999 811L-0.499994 784.032C10.0905 784.032 20.2471 779.762 27.7357 772.16C35.2243 764.559 39.4313 754.25 39.4313 743.5C39.4313 732.75 35.2243 722.441 27.7357 714.84C20.2471 707.238 10.0904 702.968 -0.5 702.968V676Z" fill="#58D8F4"/>
<path d="M133.667 270.833H66.1665L66.1665 202.5L99.9165 236.667L133.667 270.833Z" fill="#3A4276"/>
<path d="M99.6666 340C99.6666 344.487 98.7828 348.93 97.0658 353.075C95.3488 357.22 92.8321 360.987 89.6594 364.159C86.4867 367.332 82.7202 369.849 78.5749 371.566C74.4296 373.283 69.9867 374.167 65.4999 374.167C61.0131 374.167 56.5702 373.283 52.4249 371.566C48.2796 369.849 44.5131 367.332 41.3404 364.159C38.1678 360.987 35.6511 357.22 33.934 353.075C32.217 348.93 31.3333 344.487 31.3333 340L65.4999 340H99.6666Z" fill="#FF356B"/>
</g>
</svg>
