<svg width="135" height="812" viewBox="0 0 135 812" fill="none" xmlns="http://www.w3.org/2000/svg">
<mask id="mask0" mask-type="alpha" maskUnits="userSpaceOnUse" x="0" y="0" width="135" height="812">
<rect width="135" height="812" fill="#C4C4C4"/>
</mask>
<g mask="url(#mask0)">
<rect x="-0.333374" width="135" height="135" fill="#FF356B"/>
<rect x="-0.333374" width="67.6667" height="67.6667" fill="#FFAC30"/>
<rect x="-0.333374" y="67.6666" width="67.6667" height="67.6667" fill="#FFAC30"/>
<rect x="67.1666" y="67.5" width="67.5" height="67.5" fill="#3A4276"/>
<path d="M68.5 120C97.3223 120 120 96.1102 120 67.5C120 38.8898 97.3223 15 68.5 15C39.6777 15 17 38.8898 17 67.5C17 96.1102 39.6777 120 68.5 120Z" fill="#58D8F4" stroke="white" stroke-width="30"/>
<rect x="2" y="270" width="133" height="136" fill="#FF356B"/>
<rect x="-0.333374" y="338.333" width="67.6667" height="67.6667" fill="#FFAC30"/>
<circle cx="68.3" cy="338.3" r="51.3" fill="#58D8F4" stroke="white" stroke-width="30"/>
<path d="M67 270H135V407H67V270Z" fill="#3A4276"/>
<rect x="-0.333374" y="135" width="135" height="135.833" fill="white"/>
<path d="M-0.333374 135H67.3333V202.667L33.5 168.833L-0.333374 135Z" fill="#FFAC30"/>
<path d="M67.3333 202.5L-0.33341 202.5L-0.33341 134.833L33.4999 168.667L67.3333 202.5Z" fill="white"/>
<path d="M-0.333374 202.5H67.3333L32.1466 237.687L-0.333374 270.167V202.5Z" fill="#FF356B"/>
<path d="M67.3333 270.667H-0.333406L33.4999 236.833L67.3333 203L67.3333 270.667Z" fill="white"/>
<path d="M100.917 169.167L134.667 135V203.333H67.1666L100.917 169.167Z" fill="#58D8F4"/>
<rect x="-0.333374" y="405.833" width="135" height="135.833" fill="white"/>
<path d="M100.917 507.5L134.667 473.333V541.667H67.1666L100.917 507.5Z" fill="#FF356B"/>
<path d="M67.1667 472.392L-0.333376 541.667L-0.333376 405.833L134.667 405.833L67.1667 472.392Z" fill="#FFAC30"/>
<rect x="-0.333374" y="541.667" width="135" height="135" fill="white"/>
<path d="M67.3334 607.647L-0.333263 676.667L-0.333263 541.333H135L67.3334 607.647Z" fill="#58D8F4"/>
<path d="M-0.333374 541.333H67.3333V609L33.5 575.167L-0.333374 541.333Z" fill="#3A4276"/>
<path d="M-0.333374 608.667H67.3333V676.333L33.5 642.5L-0.333374 608.667Z" fill="#3A4276"/>
<path d="M134.667 676.667C116.72 676.667 99.509 669.538 86.819 656.848C74.1291 644.158 66.9999 626.946 66.9999 609C66.9999 591.054 74.1291 573.842 86.819 561.152C99.509 548.463 116.72 541.333 134.667 541.333L134.667 609V676.667Z" fill="#58D8F4"/>
<rect x="2" y="676" width="133" height="136" fill="white"/>
<path d="M135 810C117.23 810 99.5221 802.941 86.9572 790.376C74.3922 777.811 67.3333 760.77 67.3333 743C67.3333 725.231 74.3922 708.189 86.9571 695.624C99.5221 683.059 117.23 676 135 676L135 743L135 810Z" fill="#FF356B"/>
<path d="M0.5 676C18.1369 676 35.0514 683.112 47.5226 695.77C59.9938 708.429 67 725.598 67 743.5C67 761.402 59.9938 778.571 47.5226 791.23C35.0514 803.888 18.1369 811 0.50001 811L0.500006 784.032C11.0905 784.032 21.2471 779.762 28.7357 772.16C36.2243 764.559 40.4313 754.25 40.4313 743.5C40.4313 732.75 36.2243 722.441 28.7357 714.84C21.2471 707.238 11.0904 702.968 0.5 702.968V676Z" fill="#58D8F4"/>
<path d="M134.667 270.833H67.1666L67.1666 202.5L100.917 236.667L134.667 270.833Z" fill="#3A4276"/>
<path d="M100.667 340C100.667 344.487 99.7828 348.93 98.0658 353.075C96.3488 357.22 93.8321 360.987 90.6594 364.159C87.4867 367.332 83.7202 369.849 79.5749 371.566C75.4296 373.283 70.9867 374.167 66.4999 374.167C62.0131 374.167 57.5702 373.283 53.4249 371.566C49.2796 369.849 45.5131 367.332 42.3404 364.159C39.1678 360.987 36.6511 357.22 34.934 353.075C33.217 348.93 32.3333 344.487 32.3333 340L66.4999 340H100.667Z" fill="#FF356B"/>
</g>
</svg>
