<svg width="18" height="26" viewBox="0 0 18 26" fill="none" xmlns="http://www.w3.org/2000/svg">
<path d="M15.8899 2.83463L11.0946 0.91043L5.13941 11.8801L7.62439 12.8772C7.67334 12.8999 7.71568 12.9363 7.74874 12.9843C7.78181 13.0322 7.80489 13.0906 7.81653 13.1558C7.82817 13.221 7.82813 13.2916 7.8164 13.3631C7.80467 13.4346 7.78152 13.5056 7.74838 13.5715L2.73844 23.4175L13.0556 13.6341L10.634 12.6624C10.5825 12.6401 10.538 12.6024 10.5039 12.5521C10.4698 12.5018 10.4468 12.44 10.4366 12.3711C10.4264 12.3022 10.4291 12.2279 10.4447 12.1535C10.4603 12.079 10.4883 12.0062 10.5267 11.9403L15.8899 2.83463Z" fill="#3A4276"/>
</svg>
